<?xml version="1.0" encoding="utf-8"?>
<!DOCTYPE svg PUBLIC "-//W3C//DTD SVG 1.1//EN" "http://www.w3.org/Graphics/SVG/1.1/DTD/svg11.dtd">
<svg style="width:308px;height:308px;" version="1.1" id="图形" xmlns="http://www.w3.org/2000/svg" xmlns:xlink="http://www.w3.org/1999/xlink" x="0px" y="0px" width="1024px" height="1024px" viewBox="0 0 1024 1024" enable-background="new 0 0 1024 1024" xml:space="preserve">
  <path class="svgpath" data-index="path_0" fill="#CDCAC8" d="M771.72 1024 340.544 1024c0 0-169.784-169.504-169.784-174.216 0-218.536 0-764.448 0-764.448C170.768 38.224 207.24 0 252.272 0l519.448 0c45.032 0 81.512 38.224 81.512 85.336l0 853.272C853.232 985.744 816.752 1024 771.72 1024zM524.6 625.64 654.96 625.64 654.96 464.736 524.6 464.736 524.6 625.64zM382.36 625.64l118.536 0L500.896 464.736 382.36 464.736 382.36 625.64zM228.288 567.176c0 32.312 21.256 58.464 47.416 58.464l82.944 0L358.648 464.736 228.288 464.736 228.288 567.176zM358.648 113.68 275.704 113.68c-26.16 0-47.416 26.208-47.416 58.52l0 102.384 130.36 0L358.648 113.68zM500.896 113.68 382.36 113.68l0 160.904 118.536 0L500.896 113.68zM524.6 113.68l0 160.904L654.96 274.584 654.96 113.68 524.6 113.68zM797.208 172.2c0-32.312-21.208-58.52-47.416-58.52l-71.128 0 0 160.904 118.536 0L797.2 172.2zM797.208 303.84 228.288 303.84l0 131.64 450.384 0 0 14.632 0 14.632 0 160.904 71.128 0c26.2 0 47.416-26.152 47.416-58.464L797.216 303.84z" />

</svg>
