<?xml version="1.0" encoding="utf-8"?>
<!DOCTYPE svg PUBLIC "-//W3C//DTD SVG 1.1//EN" "http://www.w3.org/Graphics/SVG/1.1/DTD/svg11.dtd">
<svg style="width:308px;height:308px;" version="1.1" id="图形" xmlns="http://www.w3.org/2000/svg" xmlns:xlink="http://www.w3.org/1999/xlink" x="0px" y="0px" width="1024px" height="1024px" viewBox="0 0 1024 1024" enable-background="new 0 0 1024 1024" xml:space="preserve">
  <path class="svgpath" data-index="path_0" fill="#CDCAC8" d="M732.153227 93.203116c65.175952 14.269469 99.028311 44.524357 97.16184 88.762722-3.236219 79.279847-157.475937 173.039894-331.132971 208.894194 17.09928-117.2264 57.017669-201.940085 95.686726-209.782273 14.088843-2.82981 32.031045-2.453506 47.203645 17.09928 0.195678 0.255887 0.331148 0.571983 0.571983 0.812818l40.053859-11.545024c-40.174276-86.820991-96.078083-140.813171-157.716772-140.813171-103.408496 0-190.650948 152.027047-214.553814 356.08949-87.167191-9.287197-145.930913-42.386947-144.786947-93.142908 1.279436-58.929296 78.948699-125.068587 184.163457-169.367162l-11.108511-39.015258C156.362076 170.842275 21.3741 287.767632 21.328943 394.577922c-0.015052 98.350963 116.910304 161.570131 282.800412 169.999353 11.635337 235.355931 105.907159 419.820432 219.852183 419.820432 103.619227 0 190.891783-152.403351 214.674232-356.857151l-68.622902 18.032515c-15.022078 109.579891-47.911098 185.894458-85.857651 185.894458-47.956255 0-87.78433-121.757107-93.820256-278.435279 8.790475-1.475114 17.641158-3.055593 26.552051-4.741438 269.524386-51.899927 490.520535-208.743672 485.718889-344.544466C999.194003 108.044569 878.219609 48.964751 717.206409 39.617345L732.153227 93.203116 732.153227 93.203116z" />

</svg>
