<?xml version="1.0" encoding="utf-8"?>
<!DOCTYPE svg PUBLIC "-//W3C//DTD SVG 1.1//EN" "http://www.w3.org/Graphics/SVG/1.1/DTD/svg11.dtd">
<svg style="width:308px;height:308px;" version="1.1" id="图形" xmlns="http://www.w3.org/2000/svg" xmlns:xlink="http://www.w3.org/1999/xlink" x="0px" y="0px" width="1622px" height="1024px" viewBox="0 0 1622 1024" enable-background="new 0 0 1622 1024" xml:space="preserve">
  <path class="svgpath" data-index="path_0" fill="#CDCAC8" d="M119.466667 512c0-170.666667 162.133333-392.533333 392.533333-392.533333l597.333333 0 0 204.8L1425.066667 0l-409.6 0L512 0C230.4 0 0 230.4 0 512c0 136.533333 59.733333 264.533333 145.066667 358.4l85.333333-85.333333C145.066667 708.266667 119.466667 588.8 119.466667 512L119.466667 512z" />
<path class="svgpath" data-index="path_1" fill="#CDCAC8" d="M1501.866667 520.533333c0 170.666667-145.066667 392.533333-392.533333 392.533333l-597.333333 0L512 708.266667 204.8 1024l409.6 0L1109.333333 1024c281.6 0 503.466667-230.4 503.466667-503.466667 0-136.533333-59.733333-264.533333-145.066667-358.4l-85.333333 85.333333C1442.133333 298.666667 1501.866667 401.066667 1501.866667 520.533333L1501.866667 520.533333z" />

</svg>
