<?xml version="1.0" encoding="utf-8"?>
<!DOCTYPE svg PUBLIC "-//W3C//DTD SVG 1.1//EN" "http://www.w3.org/Graphics/SVG/1.1/DTD/svg11.dtd">
<svg style="width:308px;height:308px;" version="1.1" id="图形" xmlns="http://www.w3.org/2000/svg" xmlns:xlink="http://www.w3.org/1999/xlink" x="0px" y="0px" width="1024px" height="1024px" viewBox="0 0 1024 1024" enable-background="new 0 0 1024 1024" xml:space="preserve">
  <path class="svgpath" data-index="path_0" fill="#CDCAC8" d="M956.748317 319.383074c0-25.396413-20.587897-45.983287-45.983287-45.983287L796.074917 273.399787c30.338982-28.668946 48.779983-57.630558 54.844096-86.202291 5.720282-26.951839 0.075725-53.460586-16.32378-76.657914-20.832468-29.468149-50.190099-45.043892-84.899622-45.043892-57.928341 0-112.791879 44.25083-115.099435 46.134737l-0.243547 0.201591c-3.197832 2.677992-75.478042 63.693648-118.302383 140.358725-11.768021-25.402553-34.586726-55.277978-68.078515-89.077781-28.884864-29.150924-55.190997-50.612725-56.260351-51.483558-2.307555-1.883907-57.171094-46.134737-115.098411-46.134737-34.709523 0-64.067154 15.575744-84.899622 45.043892-16.399505 23.197328-22.045085 49.705052-16.324804 76.657914 6.064113 28.570709 24.505114 57.533344 54.844096 86.202291L110.473067 273.398764c-25.396413 0-45.983287 20.587897-45.983287 45.983287l0 194.152908 58.653865 0 0 385.785413 0 5.457292 0 3.41068c0 25.432229 20.61655 46.048779 46.048779 46.048779l686.97922 0c25.432229 0 46.048779-20.61655 46.048779-46.048779l0-3.41068 0-5.457292L902.220423 513.535983l54.527894 0L956.748317 319.383074zM667.071821 151.170978c12.075013-9.723455 49.957809-34.509978 82.623789-34.509978 18.124799 0 31.826869 7.440459 43.120077 23.414269 8.278547 11.709693 10.841929 23.287379 8.065699 36.437887-8.095375 38.359656-58.392922 77.68429-82.736353 93.40432-11.974729 0.64673-38.894845 2.077312-68.245314 3.481288l-87.053682 0C600.509846 208.189599 663.779845 153.965627 667.071821 151.170978zM308.137962 269.916453c-24.329105-15.648398-74.518181-54.80521-82.697467-93.342921-2.796696-13.175067-0.237407-24.772196 8.05342-36.498262 11.293207-15.97381 24.994254-23.414269 43.120077-23.414269 32.80822 0 70.879304 25.00244 82.775238 34.631752 35.012422 28.479635 92.618421 84.289732 110.143563 122.106012l-93.116771 0C347.039971 271.993764 320.099389 270.563182 308.137962 269.916453zM175.673022 513.535983l309.721017 0 0 385.785413L175.673022 899.321396 175.673022 513.535983zM849.690022 899.321396 537.923416 899.321396 537.923416 513.535983l311.76763 0L849.691045 899.321396z" />

</svg>
