<?xml version="1.0" encoding="utf-8"?>
<!DOCTYPE svg PUBLIC "-//W3C//DTD SVG 1.1//EN" "http://www.w3.org/Graphics/SVG/1.1/DTD/svg11.dtd">
<svg style="width:308px;height:308px;" version="1.1" id="图形" xmlns="http://www.w3.org/2000/svg" xmlns:xlink="http://www.w3.org/1999/xlink" x="0px" y="0px" width="1024px" height="1024px" viewBox="0 0 1024 1024" enable-background="new 0 0 1024 1024" xml:space="preserve">
  <path class="svgpath" data-index="path_0" fill="#CDCAC8" d="M680.17628 754.969731c-50.974975 36.167734-110.63782 54.307883-171.645288 53.479005-8.06263-0.090051-16.081257-0.514723-24.00881-1.209548-3.225461-0.313132-6.449899-0.851391-9.720386-1.25355-6.226818-0.851391-12.452613-1.701758-18.499329-2.888793-3.762697-0.717338-7.436366-1.679245-11.109012-2.553149-5.957689-1.410116-11.870352-2.843768-17.692964-4.590552-2.777253-0.87288-5.509481-1.88186-8.286734-2.822278-6.674003-2.261507-13.349029-4.613064-19.84293-7.367805-1.477654-0.603751-2.911306-1.298576-4.344958-1.970888-7.614421-3.381004-15.095813-6.919597-22.351054-10.906397-0.358157-0.180102-0.627287-0.335644-0.985444-0.514723-24.546046-13.638625-46.988174-30.68179-66.696028-50.591235-0.313132-0.314155-0.627287-0.673335-0.940418-1.030469-6.136767-6.203282-11.95938-12.719696-17.512862-19.48375-1.164522-1.456165-2.285043-3.001357-3.449565-4.479011-40.089044-50.770314-64.276932-115.022687-64.276932-184.918593l67.995627 0c1.746784 0 3.448542-0.940418 4.344958-2.598174 0.895393-1.63422 0.762363-3.583618-0.224104-5.03876l-114.266463-173.542498c-0.895393-1.343601-2.407839-2.240017-4.13211-2.240017-1.701758 0-3.225461 0.895393-4.120854 2.240017L54.144154 504.207523c-0.962931 1.478677-1.119497 3.40454-0.224104 5.061272s2.598174 2.598174 4.344958 2.598174l67.995627 0c0 82.168418 25.307386 158.335145 68.27499 221.311455 0.537236 0.87288 0.895393 1.813299 1.478677 2.687202 4.479011 6.449899 9.406231 12.384052 14.199397 18.475793 1.746784 2.306532 3.448542 4.680603 5.285377 6.943133 7.03216 8.644891 14.513552 16.752546 22.171975 24.702612 0.76134 0.783853 1.433652 1.567705 2.149966 2.261507 25.800619 26.15673 54.959729 48.194652 86.718037 65.797565 0.806365 0.5137 1.612731 1.006933 2.508123 1.477654 9.138124 4.972245 18.543332 9.473769 28.084639 13.728676 2.37407 1.029446 4.65809 2.171456 7.077186 3.202948 8.15268 3.403516 16.529465 6.404873 24.949228 9.271154 3.986801 1.366114 7.928576 2.75474 11.960403 4.00829 7.391341 2.217505 14.916734 4.053316 22.485107 5.89015 5.061272 1.187035 10.034541 2.464121 15.184841 3.449565 2.104941 0.448208 4.120854 1.096984 6.225795 1.432629 7.167237 1.277086 14.334473 1.9934 21.500687 2.889817 2.597151 0.289596 5.151323 0.737804 7.704472 1.029446 12.900821 1.276063 25.710568 2.12643 38.521339 2.12643 78.432327 0 154.936745-24.275893 220.559325-70.836325 20.918425-14.869662 26.024723-44.050262 11.377118-65.259306C729.98571 745.227856 701.093682 740.099045 680.17628 754.969731M897.77825 511.867994c-0.044002-81.921801-25.172309-157.931962-67.950601-220.774219-0.627287-1.075495-1.074472-2.172479-1.746784-3.157923-5.330402-7.68196-11.107989-14.848173-16.887622-22.036899-0.671289-0.87288-1.298576-1.791809-2.01489-2.642177-39.149649-48.082088-88.286766-85.23629-144.008858-109.513206-1.523703-0.672312-3.046383-1.433652-4.569062-2.105964-8.91402-3.695159-18.006096-6.964622-27.14422-10.077519-3.314489-1.096984-6.584975-2.306532-9.94449-3.314489-7.972579-2.441609-16.080234-4.435009-24.232914-6.338359-4.523013-1.051959-9.003048-2.216481-13.57211-3.112897-2.285043-0.448208-4.389984-1.119497-6.630001-1.52268-6.090718-1.075495-12.228509-1.545192-18.319228-2.330068-4.210905-0.537236-8.376785-1.209548-12.632715-1.657756-10.257621-0.961908-20.425192-1.366114-30.592762-1.545192-1.836835 0-3.673669-0.290619-5.510504-0.290619-0.313132 0-0.627287 0.089028-0.984421 0.11154-78.298274 0.066515-154.668639 24.006763-220.201168 70.500681-20.962427 14.82566-26.068725 44.051285-11.422144 65.259306s43.583634 26.359344 64.501036 11.488659c50.615794-35.899628 109.697401-54.06229 170.256662-53.524031 8.734942 0.066515 17.289782 0.49221 25.755594 1.298576 2.642177 0.313132 5.196349 0.693802 7.7935 1.030469 6.988158 0.851391 13.886265 1.858324 20.694321 3.225461 3.001357 0.582261 6.001691 1.366114 8.91402 2.037403 6.674003 1.52268 13.349029 3.157923 19.887956 5.151323 2.059915 0.672312 4.075829 1.411139 6.135744 2.104941 7.481392 2.464121 14.781658 5.128811 21.992897 8.151657 0.717338 0.313132 1.477654 0.693802 2.194992 0.985444 43.135426 18.788925 80.985476 47.723931 110.503766 83.892689 0.179079 0.224104 0.358157 0.514723 0.537236 0.716314 41.567721 51.218522 66.605977 116.701932 66.605977 187.986465l-67.995627 0c-1.746784 0-3.448542 0.940418-4.343935 2.598174-0.895393 1.657756-0.762363 3.583618 0.224104 5.061272l114.310466 173.519985c0.851391 1.343601 2.375094 2.216481 4.121877 2.216481 1.701758 0 3.224438-0.87288 4.120854-2.216481l114.221438-173.519985c0.985444-1.478677 1.119497-3.40454 0.224104-5.061272-0.895393-1.657756-2.597151-2.598174-4.343935-2.598174l-67.950601 0L897.776204 511.867994z" />

</svg>
