<?xml version="1.0" encoding="utf-8"?>
<!DOCTYPE svg PUBLIC "-//W3C//DTD SVG 1.1//EN" "http://www.w3.org/Graphics/SVG/1.1/DTD/svg11.dtd">
<svg style="width:308px;height:308px;" version="1.1" id="图形" xmlns="http://www.w3.org/2000/svg" xmlns:xlink="http://www.w3.org/1999/xlink" x="0px" y="0px" width="1024px" height="1024px" viewBox="0 0 1024 1024" enable-background="new 0 0 1024 1024" xml:space="preserve">
  <path class="svgpath" data-index="path_0" fill="#616161" d="M455.494979 805.069193c-194.888903 0-353.441893-158.552792-353.441893-353.434928 0-194.881113 158.55299-353.433905 353.441893-353.433905S808.944036 256.753152 808.944036 451.634265C808.944036 646.515378 650.383882 805.069193 455.494979 805.069193M455.494979 185.194516c-146.920627 0-266.44426 119.526018-266.44426 266.439749 0 146.914754 119.523633 266.440772 266.44426 266.440772s266.4504-119.526018 266.4504-266.440772C721.945379 304.720534 602.415606 185.194516 455.494979 185.194516" />
<path class="svgpath" data-index="path_1" fill="#616161" d="M868.304189 917.954991c-13.70566 0-27.402111-5.228061-37.85865-15.678043L645.790086 717.636039c-20.905916-20.906104-20.905916-54.804077 0-75.714274 20.914103-20.899964 54.806268-20.899964 75.718324 0l184.654429 184.640908c20.90694 20.906104 20.90694 54.804077 0 75.714274C895.705277 912.72693 882.008826 917.954991 868.304189 917.954991" />

</svg>
