<?xml version="1.0" encoding="utf-8"?>
<!DOCTYPE svg PUBLIC "-//W3C//DTD SVG 1.1//EN" "http://www.w3.org/Graphics/SVG/1.1/DTD/svg11.dtd">
<svg style="width:308px;height:308px;" version="1.1" id="图形" xmlns="http://www.w3.org/2000/svg" xmlns:xlink="http://www.w3.org/1999/xlink" x="0px" y="0px" width="1024px" height="1024px" viewBox="0 0 1024 1024" enable-background="new 0 0 1024 1024" xml:space="preserve">
  <path class="svgpath" data-index="path_0" fill="#616161" d="M511.968 1002.656c-7.136 0-13.856-3.328-18.176-8.992l-279.168-366.688c-0.64-0.832-1.28-1.696-1.952-2.528-1.088-1.344-2.208-2.88-3.328-4.416l-1.28-1.504c-0.832-1.056-1.6-2.208-2.24-3.328-45.568-63.904-69.664-139.232-69.664-217.952 0-100.384 39.072-194.784 110.048-265.728 71.008-71.072 165.376-110.176 265.728-110.176s194.816 39.104 265.824 110.112 110.048 165.408 110.048 265.76c0 78.72-24.096 154.016-69.728 217.92-0.576 0.992-1.248 2.08-2.048 3.008l-1.44 1.888c-1.632 2.208-3.456 4.64-5.376 7.04l-279.072 366.656c-4.32 5.632-11.04 8.96-18.144 8.96l0 0 0 0zM276.288 580.8l235.648 309.664 235.936-309.792c0-0.096 0.096-0.256 0.16-0.352 1.504-1.824 2.944-3.68 4.544-5.792 0.032-0.128 0.192-0.288 0.32-0.416 0.288-0.448 0.48-0.864 0.864-1.312 37.024-51.104 56.576-111.552 56.576-174.688 0-79.68-31.04-154.592-87.392-210.912-56.416-56.352-131.232-87.392-210.976-87.392s-154.56 31.072-210.912 87.392c-56.32 56.352-87.328 131.232-87.328 210.912 0 63.2 19.552 123.616 56.576 174.688 0.224 0.352 0.448 0.608 0.64 0.992 0.224 0.288 0.448 0.512 0.704 0.864 0.8 1.12 1.696 2.24 2.688 3.616 0.64 0.832 1.344 1.696 1.952 2.528l0 0 0 0zM511.968 543.072c-81.056 0-146.944-65.888-146.944-146.944s65.888-146.944 146.944-146.944 146.976 65.888 146.976 146.944c0 81.056-65.952 146.944-146.976 146.944l0 0 0 0zM511.968 320.608c-41.056 0-74.432 33.376-74.432 74.464s33.376 74.4 74.432 74.4 74.4-33.376 74.4-74.4c0-41.056-33.312-74.464-74.4-74.464l0 0 0 0z" />

</svg>
